Coordinates
version=1
nRows=23
nColumns=38
inDegrees=no

Units are S.I. units (second, meters, Newtons, ...)
If the header above contains a line with 'inDegrees', this indicates whether rotational values are in degrees (yes) or radians (no).

endheader
time	pelvis_tilt	pelvis_list	pelvis_rotation	pelvis_tx	pelvis_ty	pelvis_tz	hip_flexion_r	hip_adduction_r	hip_rotation_r	knee_angle_r	ankle_angle_r	subtalar_angle_r	mtp_angle_r	hip_flexion_l	hip_adduction_l	hip_rotation_l	knee_angle_l	ankle_angle_l	subtalar_angle_l	mtp_angle_l	lumbar_extension	lumbar_bending	lumbar_rotation	arm_flex_r	arm_add_r	arm_rot_r	elbow_flex_r	pro_sup_r	wrist_flex_r	wrist_dev_r	arm_flex_l	arm_add_l	arm_rot_l	elbow_flex_l	pro_sup_l	wrist_flex_l	wrist_dev_l
10	2.67414	1.44278	-0.966848	0.702822	0.451106	0.949591	-0.0260615	0.016788	-0.230603	0.400607	-0.260142	0	0	-0.00341587	-0.0831421	0.194046	0.470539	-0.159829	0	0	-0.593746	0.184371	-0.0269947	0.732196	-0.381124	0.388625	0.759965	1.15934	0	0	0.75162	-0.133109	-0.0387995	0.531628	1.5708	0	0
10.01	2.66785	1.44457	-0.960986	0.702864	0.452328	0.949488	-0.0263978	0.0168498	-0.230295	0.398422	-0.260114	0	0	-0.0042437	-0.0828284	0.194716	0.468268	-0.159388	0	0	-0.591591	0.184329	-0.028613	0.731657	-0.379846	0.392154	0.759188	1.1599	0	0	0.748054	-0.134368	-0.0412653	0.532801	1.5708	0	0
10.02	2.71886	1.42732	-1.01273	0.702422	0.452371	0.95015	-0.0481483	0.0202663	-0.232043	0.395407	-0.259798	0	0	-0.0264206	-0.0873535	0.189023	0.465966	-0.155472	0	0	-0.600909	0.199412	-0.0599562	0.78527	-0.340302	0.459786	0.695411	1.14233	0	0	0.732303	-0.161992	-0.0622373	0.533418	1.5708	0	0
10.03	2.64812	1.44957	-0.941975	0.702991	0.455043	0.949164	-0.0250672	0.0169043	-0.228794	0.395517	-0.259002	0	0	-0.00454323	-0.0825554	0.194356	0.4627	-0.157702	0	0	-0.586486	0.182646	-0.0254758	0.71787	-0.385313	0.384632	0.775008	1.14312	0	0	0.744501	-0.132641	-0.0398757	0.533727	1.5708	0	0
10.04	2.64041	1.45134	-0.934273	0.703044	0.456467	0.949004	-0.0252303	0.017144	-0.228736	0.394382	-0.2581	0	0	-0.00530922	-0.0828212	0.193464	0.460308	-0.157198	0	0	-0.584179	0.182723	-0.0241081	0.708896	-0.386081	0.373592	0.78389	1.14591	0	0	0.743166	-0.132467	-0.0372636	0.532865	1.5708	0	0
10.05	2.63295	1.45323	-0.926862	0.703025	0.457863	0.948825	-0.0254907	0.017307	-0.227744	0.392673	-0.257098	0	0	-0.00584057	-0.0827481	0.192969	0.458209	-0.156667	0	0	-0.581597	0.183068	-0.0237907	0.701419	-0.385896	0.364866	0.790639	1.14961	0	0	0.740646	-0.133032	-0.0354295	0.533459	1.5708	0	0
10.06	2.62415	1.4556	-0.918131	0.702978	0.459251	0.948609	-0.02549	0.0174651	-0.225233	0.390474	-0.255936	0	0	-0.00568304	-0.0822445	0.193032	0.456498	-0.156037	0	0	-0.578573	0.183331	-0.0235878	0.693834	-0.385684	0.355778	0.797185	1.15564	0	0	0.7375	-0.133512	-0.0336207	0.534887	1.5708	0	0
10.07	2.61284	1.45806	-0.906609	0.702929	0.460637	0.948398	-0.0251726	0.0176432	-0.223532	0.388487	-0.254976	0	0	-0.00501352	-0.0818288	0.193572	0.4552	-0.155449	0	0	-0.575202	0.183774	-0.0237219	0.687161	-0.3857	0.348607	0.802277	1.16258	0	0	0.733953	-0.133881	-0.0324103	0.536338	1.5708	0	0
10.08	2.59731	1.46084	-0.890798	0.70285	0.461994	0.948152	-0.0241982	0.0178294	-0.222079	0.386627	-0.254087	0	0	-0.00368015	-0.0814948	0.194352	0.454042	-0.154598	0	0	-0.571389	0.184355	-0.0239438	0.680891	-0.386016	0.341971	0.80701	1.17053	0	0	0.729892	-0.134153	-0.0316839	0.538198	1.5708	0	0
10.09	2.58053	1.46385	-0.873962	0.702728	0.463343	0.947868	-0.0231175	0.017897	-0.219791	0.384348	-0.253093	0	0	-0.00215436	-0.0809187	0.194865	0.452857	-0.153698	0	0	-0.567372	0.184749	-0.0239585	0.674148	-0.386383	0.334618	0.812274	1.17874	0	0	0.725421	-0.134165	-0.0313294	0.540481	1.5708	0	0
10.1	2.5658	1.46638	-0.859384	0.702632	0.464763	0.947628	-0.0228377	0.0179529	-0.218408	0.381829	-0.252123	0	0	-0.00162221	-0.0805328	0.194574	0.451032	-0.152891	0	0	-0.563884	0.185001	-0.0235349	0.666523	-0.386548	0.325918	0.818225	1.1865	0	0	0.720655	-0.133878	-0.0310759	0.543155	1.5708	0	0
10.11	2.55007	1.46885	-0.84382	0.702557	0.466227	0.947398	-0.0225598	0.0179096	-0.217853	0.379498	-0.251339	0	0	-0.00125194	-0.0802916	0.194116	0.449004	-0.15213	0	0	-0.560424	0.18521	-0.0228972	0.65813	-0.386613	0.316359	0.824779	1.19302	0	0	0.715583	-0.133312	-0.0309997	0.546127	1.5708	0	0
10.12	2.53222	1.47156	-0.82622	0.702506	0.467704	0.947143	-0.0217091	0.0176319	-0.217818	0.377813	-0.25047	0	0	-0.000578543	-0.0800402	0.193496	0.447016	-0.151433	0	0	-0.556716	0.1852	-0.0222396	0.649461	-0.386593	0.306753	0.831364	1.19962	0	0	0.71025	-0.13259	-0.0313778	0.549244	1.5708	0	0
10.13	2.51208	1.47437	-0.806565	0.702456	0.469146	0.946853	-0.0200823	0.0171369	-0.217967	0.377369	-0.249411	0	0	0.00035812	-0.0796924	0.19316	0.445224	-0.150837	0	0	-0.55293	0.185085	-0.0214329	0.640754	-0.386473	0.297176	0.837931	1.20684	0	0	0.704873	-0.131749	-0.0320856	0.552297	1.5708	0	0
10.14	2.48967	1.47715	-0.785098	0.702368	0.470558	0.946551	-0.0182995	0.0167016	-0.217462	0.376754	-0.248404	0	0	0.00128769	-0.0792195	0.192773	0.443372	-0.15031	0	0	-0.549211	0.18496	-0.0204185	0.632241	-0.386155	0.28796	0.844382	1.21475	0	0	0.699383	-0.131013	-0.0329058	0.555272	1.5708	0	0
10.15	2.46815	1.47969	-0.765116	0.702282	0.471998	0.946278	-0.017178	0.0164665	-0.216011	0.375134	-0.247573	0	0	0.00171056	-0.0787099	0.19174	0.441534	-0.149466	0	0	-0.54588	0.184557	-0.018979	0.623731	-0.38579	0.279289	0.850698	1.22319	0	0	0.693967	-0.130283	-0.0337422	0.557878	1.5708	0	0
10.16	2.44327	1.48223	-0.741774	0.702255	0.473435	0.945997	-0.0157112	0.0164665	-0.214205	0.373666	-0.246485	0	0	0.00229349	-0.0783878	0.19078	0.439612	-0.148239	0	0	-0.542443	0.184021	-0.0173673	0.614682	-0.385304	0.270331	0.857136	1.23204	0	0	0.688676	-0.129584	-0.0343847	0.560353	1.5708	0	0
10.17	2.4133	1.4849	-0.712664	0.702278	0.474896	0.94571	-0.013763	0.0165898	-0.21323	0.372705	-0.24527	0	0	0.00350787	-0.0783094	0.190722	0.437899	-0.147068	0	0	-0.538716	0.183611	-0.0159178	0.604498	-0.384585	0.25944	0.864356	1.24028	0	0	0.683341	-0.128933	-0.0344933	0.563217	1.5708	0	0
10.18	2.38371	1.48727	-0.683921	0.702292	0.476369	0.945448	-0.0122832	0.0167598	-0.212157	0.371612	-0.244055	0	0	0.00434669	-0.0782652	0.190794	0.436064	-0.14614	0	0	-0.53541	0.183056	-0.014033	0.593612	-0.384068	0.247294	0.872196	1.24805	0	0	0.677993	-0.128073	-0.0341634	0.566541	1.5708	0	0
10.19	2.35431	1.48944	-0.655788	0.702282	0.4778	0.945207	-0.0113321	0.0169582	-0.210161	0.369787	-0.243342	0	0	0.00485424	-0.0780063	0.191165	0.43421	-0.145294	0	0	-0.53205	0.183745	-0.0132287	0.584725	-0.382162	0.237205	0.878966	1.25697	0	0	0.671748	-0.128352	-0.0351673	0.5693	1.5708	0	0
10.2	2.32553	1.49124	-0.628451	0.70227	0.479254	0.944976	-0.0106226	0.0170981	-0.209063	0.368387	-0.24301	0	0	0.00493659	-0.0778788	0.191309	0.432279	-0.144382	0	0	-0.529168	0.184302	-0.0120264	0.575628	-0.380629	0.22729	0.886073	1.26711	0	0	0.665156	-0.12843	-0.0364954	0.572812	1.5708	0	0
10.21	2.29464	1.49299	-0.598848	0.702284	0.48072	0.944731	-0.00986571	0.0172206	-0.20868	0.366819	-0.242416	0	0	0.00524587	-0.0778428	0.191366	0.430465	-0.143436	0	0	-0.526212	0.184792	-0.0110039	0.566178	-0.378695	0.217292	0.893313	1.27732	0	0	0.658152	-0.128741	-0.0376787	0.5767	1.5708	0	0
10.22	2.25712	1.49506	-0.562515	0.702302	0.48216	0.944442	-0.00929462	0.0177581	-0.206235	0.363125	-0.241778	0	0	0.00654593	-0.0775006	0.192054	0.429412	-0.142378	0	0	-0.522696	0.184971	-0.010135	0.55672	-0.37641	0.206196	0.900096	1.28838	0	0	0.651128	-0.129146	-0.0386735	0.580786	1.5708	0	0
